<mxfile host="app.diagrams.net" agent="Mozilla/5.0 (Windows NT 10.0; Win64; x64) AppleWebKit/537.36 (KHTML, like Gecko) Chrome/135.0.0.0 Safari/537.36" version="26.2.14">
  <diagram name="Page-1" id="yfPeq8xUbYLH6aEanU33">
    <mxGraphModel dx="1588" dy="844" grid="1" gridSize="10" guides="1" tooltips="1" connect="1" arrows="1" fold="1" page="1" pageScale="1" pageWidth="850" pageHeight="1100" math="0" shadow="0">
      <root>
        <mxCell id="0" />
        <mxCell id="1" parent="0" />
        <mxCell id="9b5Q7n7c7D9XhLn1eSOw-23" value="LMS" style="rounded=0;whiteSpace=wrap;html=1;" vertex="1" parent="1">
          <mxGeometry x="215" y="160" width="405" height="40" as="geometry" />
        </mxCell>
        <mxCell id="9b5Q7n7c7D9XhLn1eSOw-35" value="librarians" style="shape=umlActor;verticalLabelPosition=bottom;verticalAlign=top;html=1;outlineConnect=0;" vertex="1" parent="1">
          <mxGeometry x="100" y="380" width="30" height="60" as="geometry" />
        </mxCell>
        <mxCell id="9b5Q7n7c7D9XhLn1eSOw-36" value="manage books" style="ellipse;whiteSpace=wrap;html=1;" vertex="1" parent="1">
          <mxGeometry x="377.5" y="230" width="80" height="40" as="geometry" />
        </mxCell>
        <mxCell id="9b5Q7n7c7D9XhLn1eSOw-37" value="manage members" style="ellipse;whiteSpace=wrap;html=1;" vertex="1" parent="1">
          <mxGeometry x="377.5" y="280" width="80" height="40" as="geometry" />
        </mxCell>
        <mxCell id="9b5Q7n7c7D9XhLn1eSOw-64" style="edgeStyle=orthogonalEdgeStyle;rounded=0;orthogonalLoop=1;jettySize=auto;html=1;entryX=0;entryY=0.5;entryDx=0;entryDy=0;" edge="1" parent="1" source="9b5Q7n7c7D9XhLn1eSOw-38" target="9b5Q7n7c7D9XhLn1eSOw-61">
          <mxGeometry relative="1" as="geometry" />
        </mxCell>
        <mxCell id="9b5Q7n7c7D9XhLn1eSOw-65" style="edgeStyle=orthogonalEdgeStyle;rounded=0;orthogonalLoop=1;jettySize=auto;html=1;entryX=0;entryY=0.5;entryDx=0;entryDy=0;" edge="1" parent="1" source="9b5Q7n7c7D9XhLn1eSOw-38" target="9b5Q7n7c7D9XhLn1eSOw-62">
          <mxGeometry relative="1" as="geometry" />
        </mxCell>
        <mxCell id="9b5Q7n7c7D9XhLn1eSOw-66" style="edgeStyle=orthogonalEdgeStyle;rounded=0;orthogonalLoop=1;jettySize=auto;html=1;entryX=0;entryY=0.5;entryDx=0;entryDy=0;" edge="1" parent="1" source="9b5Q7n7c7D9XhLn1eSOw-38" target="9b5Q7n7c7D9XhLn1eSOw-63">
          <mxGeometry relative="1" as="geometry" />
        </mxCell>
        <mxCell id="9b5Q7n7c7D9XhLn1eSOw-38" value="generate report" style="ellipse;whiteSpace=wrap;html=1;" vertex="1" parent="1">
          <mxGeometry x="370" y="340" width="82.5" height="40" as="geometry" />
        </mxCell>
        <mxCell id="9b5Q7n7c7D9XhLn1eSOw-44" style="edgeStyle=orthogonalEdgeStyle;rounded=0;orthogonalLoop=1;jettySize=auto;html=1;exitX=1;exitY=0.5;exitDx=0;exitDy=0;entryX=0;entryY=0.5;entryDx=0;entryDy=0;fontSize=8;" edge="1" parent="1" source="9b5Q7n7c7D9XhLn1eSOw-39" target="9b5Q7n7c7D9XhLn1eSOw-40">
          <mxGeometry relative="1" as="geometry" />
        </mxCell>
        <mxCell id="9b5Q7n7c7D9XhLn1eSOw-45" style="edgeStyle=orthogonalEdgeStyle;rounded=0;orthogonalLoop=1;jettySize=auto;html=1;exitX=1;exitY=0.5;exitDx=0;exitDy=0;entryX=0;entryY=0.5;entryDx=0;entryDy=0;fontSize=8;" edge="1" parent="1" source="9b5Q7n7c7D9XhLn1eSOw-39" target="9b5Q7n7c7D9XhLn1eSOw-41">
          <mxGeometry relative="1" as="geometry" />
        </mxCell>
        <mxCell id="9b5Q7n7c7D9XhLn1eSOw-46" style="edgeStyle=orthogonalEdgeStyle;rounded=0;orthogonalLoop=1;jettySize=auto;html=1;exitX=1;exitY=0.5;exitDx=0;exitDy=0;entryX=0;entryY=0.5;entryDx=0;entryDy=0;fontSize=8;" edge="1" parent="1" source="9b5Q7n7c7D9XhLn1eSOw-39" target="9b5Q7n7c7D9XhLn1eSOw-42">
          <mxGeometry relative="1" as="geometry" />
        </mxCell>
        <mxCell id="9b5Q7n7c7D9XhLn1eSOw-39" value="organize" style="ellipse;whiteSpace=wrap;html=1;fontSize=8;" vertex="1" parent="1">
          <mxGeometry x="225" y="440" width="80" height="40" as="geometry" />
        </mxCell>
        <mxCell id="9b5Q7n7c7D9XhLn1eSOw-40" value="add-categorie" style="ellipse;whiteSpace=wrap;html=1;fontSize=8;" vertex="1" parent="1">
          <mxGeometry x="345" y="410" width="80" height="40" as="geometry" />
        </mxCell>
        <mxCell id="9b5Q7n7c7D9XhLn1eSOw-41" value="update-categorie" style="ellipse;whiteSpace=wrap;html=1;fontSize=8;" vertex="1" parent="1">
          <mxGeometry x="345" y="460" width="80" height="40" as="geometry" />
        </mxCell>
        <mxCell id="9b5Q7n7c7D9XhLn1eSOw-42" value="del-categorie" style="ellipse;whiteSpace=wrap;html=1;fontSize=8;" vertex="1" parent="1">
          <mxGeometry x="345" y="510" width="80" height="40" as="geometry" />
        </mxCell>
        <mxCell id="9b5Q7n7c7D9XhLn1eSOw-47" value="borrowing activities" style="ellipse;whiteSpace=wrap;html=1;" vertex="1" parent="1">
          <mxGeometry x="297.5" y="640" width="80" height="40" as="geometry" />
        </mxCell>
        <mxCell id="9b5Q7n7c7D9XhLn1eSOw-53" value="members" style="shape=umlActor;verticalLabelPosition=bottom;verticalAlign=top;html=1;outlineConnect=0;" vertex="1" parent="1">
          <mxGeometry x="710" y="540" width="30" height="60" as="geometry" />
        </mxCell>
        <mxCell id="9b5Q7n7c7D9XhLn1eSOw-54" value="search" style="ellipse;whiteSpace=wrap;html=1;" vertex="1" parent="1">
          <mxGeometry x="405" y="750" width="80" height="40" as="geometry" />
        </mxCell>
        <mxCell id="9b5Q7n7c7D9XhLn1eSOw-55" value="availability" style="ellipse;whiteSpace=wrap;html=1;" vertex="1" parent="1">
          <mxGeometry x="300" y="750" width="55" height="40" as="geometry" />
        </mxCell>
        <mxCell id="9b5Q7n7c7D9XhLn1eSOw-57" value="" style="endArrow=none;dashed=1;html=1;rounded=0;exitX=1;exitY=0.5;exitDx=0;exitDy=0;entryX=0;entryY=0.5;entryDx=0;entryDy=0;" edge="1" parent="1" source="9b5Q7n7c7D9XhLn1eSOw-55" target="9b5Q7n7c7D9XhLn1eSOw-54">
          <mxGeometry width="50" height="50" relative="1" as="geometry">
            <mxPoint x="395" y="800" as="sourcePoint" />
            <mxPoint x="445" y="750" as="targetPoint" />
          </mxGeometry>
        </mxCell>
        <mxCell id="9b5Q7n7c7D9XhLn1eSOw-58" value="borrwoing history" style="ellipse;whiteSpace=wrap;html=1;" vertex="1" parent="1">
          <mxGeometry x="410" y="820" width="80" height="40" as="geometry" />
        </mxCell>
        <mxCell id="9b5Q7n7c7D9XhLn1eSOw-59" value="" style="endArrow=none;dashed=1;html=1;rounded=0;exitX=1;exitY=0.5;exitDx=0;exitDy=0;entryX=0;entryY=0.5;entryDx=0;entryDy=0;" edge="1" parent="1">
          <mxGeometry width="50" height="50" relative="1" as="geometry">
            <mxPoint x="355" y="839.71" as="sourcePoint" />
            <mxPoint x="405" y="839.71" as="targetPoint" />
          </mxGeometry>
        </mxCell>
        <mxCell id="9b5Q7n7c7D9XhLn1eSOw-60" value="due date" style="ellipse;whiteSpace=wrap;html=1;" vertex="1" parent="1">
          <mxGeometry x="300" y="820" width="55" height="40" as="geometry" />
        </mxCell>
        <mxCell id="9b5Q7n7c7D9XhLn1eSOw-61" value="availability" style="ellipse;whiteSpace=wrap;html=1;fontSize=8;" vertex="1" parent="1">
          <mxGeometry x="510" y="310" width="80" height="40" as="geometry" />
        </mxCell>
        <mxCell id="9b5Q7n7c7D9XhLn1eSOw-62" value="history" style="ellipse;whiteSpace=wrap;html=1;fontSize=8;" vertex="1" parent="1">
          <mxGeometry x="510" y="360" width="80" height="40" as="geometry" />
        </mxCell>
        <mxCell id="9b5Q7n7c7D9XhLn1eSOw-63" value="overdue books" style="ellipse;whiteSpace=wrap;html=1;fontSize=8;" vertex="1" parent="1">
          <mxGeometry x="510" y="410" width="80" height="40" as="geometry" />
        </mxCell>
        <mxCell id="9b5Q7n7c7D9XhLn1eSOw-67" value="record" style="ellipse;whiteSpace=wrap;html=1;" vertex="1" parent="1">
          <mxGeometry x="425" y="550" width="80" height="40" as="geometry" />
        </mxCell>
        <mxCell id="9b5Q7n7c7D9XhLn1eSOw-68" value="track due date" style="ellipse;whiteSpace=wrap;html=1;" vertex="1" parent="1">
          <mxGeometry x="425" y="600" width="80" height="40" as="geometry" />
        </mxCell>
        <mxCell id="9b5Q7n7c7D9XhLn1eSOw-69" value="send reminders" style="ellipse;whiteSpace=wrap;html=1;" vertex="1" parent="1">
          <mxGeometry x="425" y="650" width="80" height="40" as="geometry" />
        </mxCell>
        <mxCell id="9b5Q7n7c7D9XhLn1eSOw-72" value="" style="edgeStyle=orthogonalEdgeStyle;rounded=0;orthogonalLoop=1;jettySize=auto;html=1;" edge="1" parent="1" source="9b5Q7n7c7D9XhLn1eSOw-70" target="9b5Q7n7c7D9XhLn1eSOw-71">
          <mxGeometry relative="1" as="geometry" />
        </mxCell>
        <mxCell id="9b5Q7n7c7D9XhLn1eSOw-75" style="edgeStyle=orthogonalEdgeStyle;rounded=0;orthogonalLoop=1;jettySize=auto;html=1;entryX=0;entryY=0.5;entryDx=0;entryDy=0;" edge="1" parent="1" source="9b5Q7n7c7D9XhLn1eSOw-70" target="9b5Q7n7c7D9XhLn1eSOw-74">
          <mxGeometry relative="1" as="geometry" />
        </mxCell>
        <mxCell id="9b5Q7n7c7D9XhLn1eSOw-70" value="manage fines" style="ellipse;whiteSpace=wrap;html=1;" vertex="1" parent="1">
          <mxGeometry x="425" y="700" width="80" height="40" as="geometry" />
        </mxCell>
        <mxCell id="9b5Q7n7c7D9XhLn1eSOw-71" value="late" style="ellipse;whiteSpace=wrap;html=1;" vertex="1" parent="1">
          <mxGeometry x="550" y="670" width="65" height="40" as="geometry" />
        </mxCell>
        <mxCell id="9b5Q7n7c7D9XhLn1eSOw-74" value="lost" style="ellipse;whiteSpace=wrap;html=1;" vertex="1" parent="1">
          <mxGeometry x="550" y="720" width="65" height="40" as="geometry" />
        </mxCell>
      </root>
    </mxGraphModel>
  </diagram>
</mxfile>
